<svg width="266" height="187" viewBox="0 0 266 187" fill="none" xmlns="http://www.w3.org/2000/svg">
<path d="M-18.4932 155.159C-17.2811 166.254 -3.57131 178.342 6.7514 182.18C16.7421 185.896 29.1788 184.87 39.743 184.87C51.5358 184.87 64.3653 185.626 75.4727 181.324C102.404 170.894 114.753 148.634 120.352 123.797C124.624 104.844 127.116 78.4644 150.071 71.2827C163.845 66.9735 180.439 66.9602 194.817 69.3264C220.685 73.5834 244.626 66.1141 254.856 42.4272C258.635 33.678 262.803 25.4412 262.803 15.8949C262.803 10.5966 262.803 5.29831 262.803 0" stroke="#05B022" stroke-opacity="0.8" stroke-width="3" stroke-linecap="round"/>
<rect x="-17.4275" width="137.452" height="125" fill="#05B022"/>
<ellipse cx="203.667" cy="20" rx="58.0707" ry="51" fill="#05B022"/>
<ellipse cx="207.929" cy="12" rx="58.0707" ry="51" fill="#05B022"/>
<ellipse cx="126.95" cy="23" rx="58.0707" ry="51" fill="#05B022"/>
<ellipse cx="152.522" cy="18" rx="61.2672" ry="53" fill="#05B022"/>
<ellipse cx="88.5915" cy="49" rx="61.2672" ry="53" fill="#05B022"/>
<ellipse cx="37.9793" cy="110.5" rx="80.9793" ry="69.5" fill="#05B022"/>
<ellipse cx="40.1104" cy="169.5" rx="51.1448" ry="14.5" fill="#05B022"/>
<ellipse cx="86.4604" cy="113.5" rx="26.1052" ry="58.5" fill="#05B022"/>
<ellipse cx="100.312" cy="93.5" rx="26.1052" ry="58.5" fill="#05B022"/>
<ellipse cx="97.1156" cy="101.5" rx="28.2362" ry="58.5" fill="#05B022"/>
<ellipse cx="14.0052" cy="165" rx="27.1707" ry="12" fill="#05B022"/>
<ellipse cx="22.5293" cy="173" rx="27.1707" ry="12" fill="#05B022"/>
<ellipse cx="54.4949" cy="172" rx="27.1707" ry="12" fill="#05B022"/>
<ellipse cx="101.377" cy="90" rx="27.1707" ry="12" fill="#05B022"/>
<ellipse cx="122.688" cy="67" rx="27.1707" ry="12" fill="#05B022"/>
<ellipse cx="175.964" cy="55" rx="27.1707" ry="12" fill="#05B022"/>
<ellipse cx="81.1329" cy="155" rx="27.1707" ry="12" fill="#05B022"/>
</svg>
