<svg width="233" height="97" viewBox="0 0 233 97" fill="none" xmlns="http://www.w3.org/2000/svg">
<path d="M113.08 96.64C109.24 96.64 105.848 96.0213 102.904 94.784C100.003 93.504 97.72 91.648 96.056 89.216C94.392 86.7413 93.56 83.712 93.56 80.128V54.784H105.592V78.848C105.592 83.8827 108.088 86.4 113.08 86.4C115.469 86.4 117.304 85.7813 118.584 84.544C119.864 83.3067 120.504 81.408 120.504 78.848V54.784H132.536V80.128C132.536 83.712 131.704 86.7413 130.04 89.216C128.419 91.648 126.136 93.504 123.192 94.784C120.291 96.0213 116.92 96.64 113.08 96.64ZM138.005 96V65.664H149.589L149.909 68.096C151.146 67.3707 152.725 66.7093 154.645 66.112C156.565 65.5147 158.506 65.152 160.469 65.024V73.984C159.36 74.0693 158.144 74.2187 156.821 74.432C155.541 74.6453 154.282 74.9227 153.045 75.264C151.85 75.5627 150.848 75.904 150.037 76.288V96H138.005ZM163.88 96V65.664H175.144L175.464 67.968C176.616 67.2 178.131 66.5173 180.008 65.92C181.928 65.3227 183.976 65.024 186.152 65.024C189.949 65.024 192.723 65.9627 194.472 67.84C196.221 69.7173 197.096 72.6187 197.096 76.544V96H185.064V77.76C185.064 76.3947 184.765 75.4133 184.168 74.816C183.571 74.2187 182.525 73.92 181.032 73.92C180.136 73.92 179.197 74.1333 178.216 74.56C177.277 74.9867 176.509 75.4987 175.912 76.096V96H163.88ZM211.04 96.64C209.12 96.64 207.328 96.2987 205.664 95.616C204.042 94.9333 202.741 93.8667 201.76 92.416C200.778 90.9653 200.288 89.1307 200.288 86.912C200.288 83.712 201.354 81.2373 203.488 79.488C205.621 77.696 208.842 76.8 213.152 76.8H221.024V76.224C221.024 75.0293 220.533 74.1547 219.552 73.6C218.57 73.0453 216.842 72.768 214.368 72.768C210.869 72.768 207.413 73.3013 204 74.368V67.136C205.536 66.5387 207.456 66.048 209.76 65.664C212.064 65.2373 214.41 65.024 216.8 65.024C221.621 65.024 225.44 66.0053 228.256 67.968C231.072 69.9307 232.479 73.0453 232.479 77.312V96H221.984L221.408 93.568C220.341 94.5067 218.954 95.2533 217.248 95.808C215.584 96.3627 213.514 96.64 211.04 96.64ZM215.135 89.6C216.501 89.6 217.653 89.3653 218.592 88.896C219.573 88.4267 220.384 87.8507 221.024 87.168V83.392H215.2C212.554 83.392 211.232 84.4373 211.232 86.528C211.232 88.576 212.533 89.6 215.135 89.6Z" fill="#05B022"/>
<rect y="24.75" width="22.2718" height="21.75" rx="4" fill="#05B022"/>
<rect x="25.8641" y="24.75" width="22.2718" height="21.75" rx="4" fill="#05B022"/>
<rect x="25.8641" width="22.2718" height="21.75" rx="4" fill="#05B022"/>
<rect x="51.7281" width="22.2718" height="21.75" rx="4" fill="#05B022"/>
<rect x="51.7281" y="49.5" width="22.2718" height="21.75" rx="4" fill="#05B022"/>
<rect y="49.5" width="22.2718" height="21.75" rx="4" fill="#05B022"/>
<rect x="25.8641" y="49.5" width="22.2718" height="21.75" rx="4" fill="#05B022"/>
<rect y="74.25" width="22.2718" height="21.75" rx="4" fill="#05B022"/>
<rect x="25.8641" y="74.25" width="22.2718" height="21.75" rx="4" fill="#05B022"/>
<ellipse cx="11.1359" cy="10.875" rx="11.1359" ry="10.875" fill="#FF0000"/>
</svg>
