<svg width="662" height="636" viewBox="0 0 662 636" fill="none" xmlns="http://www.w3.org/2000/svg">
<path d="M563.905 2.6738C590.884 0.134903 621.282 -2.58342 645.713 9.42879C649.815 6.7063 652.559 6.8441 656.054 6.55049C654.939 5.7401 652.62 4.78175 652.349 4.60473C649.564 2.78466 646.812 1.49076 645.012 0.746979C641.91 -0.258287 642.624 -0.239655 645.012 0.746979C646.377 1.18937 648.481 1.83006 651.506 2.6738C653.099 3.11797 654.447 3.47657 655.579 3.76055C653.613 2.9698 651.692 2.04266 650.988 1.17492C650.901 1.06774 650.832 0.961461 650.784 0.856457C650.576 0.397505 651.951 0.694312 653.74 1.28503C654.953 1.53016 656.165 1.9996 657.185 2.58007C660.001 3.75774 662.136 4.96758 659.517 4.60359C659.661 4.83931 659.76 5.07436 659.806 5.3042C660.541 5.55966 660.977 5.71757 660.892 5.74056C660.503 5.8455 660.126 5.9369 659.76 6.01694C659.437 6.91626 658.026 7.63724 654.955 7.84089C653.638 7.96176 652.168 7.89866 653.071 7.89866C653.758 7.89866 654.385 7.87868 654.955 7.84089C655.668 7.77553 656.336 7.65636 656.56 7.44432C656.793 7.22436 656.537 6.90129 656.054 6.55049C652.559 6.8441 649.815 6.7063 645.713 9.42879C645.521 9.55603 645.327 9.68951 645.129 9.82959C639.049 14.1335 647.754 15.4158 653.552 15.9631C665.667 17.1067 658.713 8.87263 663.539 3.01455C668.392 -2.87426 671 27.7862 671 32.4328C671 58.5564 668.834 85.1391 668.834 111.487V350.922C668.834 432.73 667.816 514.469 666.668 596.263C666.381 616.723 661.389 617.304 641.412 619.632L641.158 619.661C625.002 621.544 610.565 625.341 594.108 625.341H550.789C529.771 625.341 509.945 628.729 489.059 630.452C442.693 634.276 396.333 633.519 349.836 633.519C286.261 633.519 220.329 628.399 157.306 636.585C135.436 639.426 113.105 637.383 91.4854 640.674C79.1996 642.545 49.5693 646.761 41.7886 635.336C37.2455 628.665 32.2071 623.388 32.0418 615.118C31.8599 606.016 36.1618 588.478 29.8758 581.497C24.0555 575.034 18.3475 565.326 16.3987 557.19C11.7264 537.683 9.30665 512.363 16.7597 493.356C34.9301 447.017 90.8839 421.048 135.767 403.171C169.619 389.687 204.051 377.842 237.567 363.53C265.345 351.668 287.103 340.243 304.231 315.938C334.437 273.075 337.241 228.077 348.272 179.183C357.887 136.568 379.699 99.8705 414.454 70.597C454.536 36.8373 509.544 7.78958 563.905 2.6738Z" fill="#05B022"/>
<ellipse cx="92.5" cy="547.5" rx="92.5" ry="105.5" fill="#05B022"/>
<rect x="166" y="568" width="529" height="68" fill="#05B022"/>
</svg>
