<svg width="185" height="233" viewBox="0 0 185 233" fill="none" xmlns="http://www.w3.org/2000/svg">
<path d="M31.7858 -53.2896C20.6825 -52.1534 8.50172 -38.5266 4.59242 -28.2304C0.80883 -18.2653 1.74919 -5.82192 1.67695 4.74204C1.59631 16.5346 0.752658 29.3586 4.97833 40.4952C15.224 67.4974 37.3999 79.9984 62.1975 85.7668C81.1207 90.1686 107.483 92.8404 114.507 115.844C118.722 129.647 118.622 146.241 116.158 160.602C111.724 186.441 119.029 210.432 142.646 220.824C151.369 224.663 159.577 228.887 169.123 228.953C174.421 228.989 179.719 229.025 185.018 229.061" stroke="#05B022" stroke-opacity="0.8" stroke-width="3" stroke-linecap="round"/>
<rect x="186.934" y="-51.1631" width="137.452" height="125" transform="rotate(90.3918 186.934 -51.1631)" fill="#05B022"/>
<ellipse cx="165.422" cy="169.79" rx="58.0707" ry="51" transform="rotate(90.3918 165.422 169.79)" fill="#05B022"/>
<ellipse cx="173.393" cy="174.106" rx="58.0707" ry="51" transform="rotate(90.3918 173.393 174.106)" fill="#05B022"/>
<ellipse cx="162.947" cy="93.0536" rx="58.0707" ry="51" transform="rotate(90.3918 162.947 93.0536)" fill="#05B022"/>
<ellipse cx="167.772" cy="118.66" rx="61.2672" ry="53" transform="rotate(90.3918 167.772 118.66)" fill="#05B022"/>
<ellipse cx="137.21" cy="54.5181" rx="61.2672" ry="53" transform="rotate(90.3918 137.21 54.5181)" fill="#05B022"/>
<ellipse cx="76.0575" cy="3.48701" rx="80.9793" ry="69.5" transform="rotate(90.3918 76.0575 3.48701)" fill="#05B022"/>
<ellipse cx="17.0444" cy="5.2144" rx="51.1448" ry="14.5" transform="rotate(90.3918 17.0444 5.2144)" fill="#05B022"/>
<ellipse cx="72.7262" cy="51.9462" rx="26.1052" ry="58.5" transform="rotate(90.3918 72.7262 51.9462)" fill="#05B022"/>
<ellipse cx="92.631" cy="65.9345" rx="26.1052" ry="58.5" transform="rotate(90.3918 92.631 65.9345)" fill="#05B022"/>
<ellipse cx="84.653" cy="62.6832" rx="28.2362" ry="58.5" transform="rotate(90.3918 84.653 62.6832)" fill="#05B022"/>
<ellipse cx="21.7227" cy="-20.8593" rx="27.1707" ry="12" transform="rotate(90.3918 21.7227 -20.8593)" fill="#05B022"/>
<ellipse cx="13.6646" cy="-12.39" rx="27.1707" ry="12" transform="rotate(90.3918 13.6646 -12.39)" fill="#05B022"/>
<ellipse cx="14.4461" cy="19.5812" rx="27.1707" ry="12" transform="rotate(90.3918 14.4461 19.5812)" fill="#05B022"/>
<ellipse cx="96.1236" cy="67.024" rx="27.1707" ry="12" transform="rotate(90.3918 96.1236 67.024)" fill="#05B022"/>
<ellipse cx="118.977" cy="88.4908" rx="27.1707" ry="12" transform="rotate(90.3918 118.977 88.4908)" fill="#05B022"/>
<ellipse cx="130.613" cy="141.848" rx="27.1707" ry="12" transform="rotate(90.3918 130.613 141.848)" fill="#05B022"/>
<ellipse cx="31.2635" cy="46.3351" rx="27.1707" ry="12" transform="rotate(90.3918 31.2635 46.3351)" fill="#05B022"/>
<ellipse cx="165.422" cy="169.79" rx="58.0707" ry="51" transform="rotate(90.3918 165.422 169.79)" fill="#05B022"/>
<ellipse cx="173.393" cy="174.106" rx="58.0707" ry="51" transform="rotate(90.3918 173.393 174.106)" fill="#05B022"/>
<ellipse cx="162.947" cy="93.0536" rx="58.0707" ry="51" transform="rotate(90.3918 162.947 93.0536)" fill="#05B022"/>
<ellipse cx="167.772" cy="118.66" rx="61.2672" ry="53" transform="rotate(90.3918 167.772 118.66)" fill="#05B022"/>
<ellipse cx="137.21" cy="54.5181" rx="61.2672" ry="53" transform="rotate(90.3918 137.21 54.5181)" fill="#05B022"/>
<ellipse cx="76.0575" cy="3.48701" rx="80.9793" ry="69.5" transform="rotate(90.3918 76.0575 3.48701)" fill="#05B022"/>
<ellipse cx="17.0444" cy="5.2144" rx="51.1448" ry="14.5" transform="rotate(90.3918 17.0444 5.2144)" fill="#05B022"/>
<ellipse cx="72.7262" cy="51.9462" rx="26.1052" ry="58.5" transform="rotate(90.3918 72.7262 51.9462)" fill="#05B022"/>
<ellipse cx="92.631" cy="65.9345" rx="26.1052" ry="58.5" transform="rotate(90.3918 92.631 65.9345)" fill="#05B022"/>
<ellipse cx="84.653" cy="62.6832" rx="28.2362" ry="58.5" transform="rotate(90.3918 84.653 62.6832)" fill="#05B022"/>
<ellipse cx="31.2635" cy="46.3351" rx="27.1707" ry="12" transform="rotate(90.3918 31.2635 46.3351)" fill="#05B022"/>
<path d="M31.7858 -53.2896C20.6825 -52.1534 8.50172 -38.5266 4.59242 -28.2304C0.80883 -18.2653 1.74919 -5.82192 1.67695 4.74204C1.59631 16.5346 0.752658 29.3586 4.97833 40.4952C15.224 67.4974 37.3999 79.9984 62.1975 85.7668C81.1207 90.1686 107.483 92.8404 114.507 115.844C118.722 129.647 118.622 146.241 116.158 160.602C111.724 186.441 119.029 210.432 142.646 220.824C151.369 224.663 159.577 228.887 169.123 228.953C174.421 228.989 179.719 229.025 185.018 229.061" stroke="#05B022" stroke-opacity="0.8" stroke-width="3" stroke-linecap="round"/>
<rect x="186.934" y="-51.1631" width="137.452" height="125" transform="rotate(90.3918 186.934 -51.1631)" fill="#05B022"/>
<ellipse cx="130.613" cy="141.848" rx="27.1707" ry="12" transform="rotate(90.3918 130.613 141.848)" fill="#05B022"/>
<ellipse cx="118.977" cy="88.4908" rx="27.1707" ry="12" transform="rotate(90.3918 118.977 88.4908)" fill="#05B022"/>
<ellipse cx="96.1236" cy="67.0235" rx="27.1707" ry="12" transform="rotate(90.3918 96.1236 67.0235)" fill="#05B022"/>
<ellipse cx="50.5732" cy="147.337" rx="24" ry="21" transform="rotate(90.3918 50.5732 147.337)" fill="#05B022"/>
<path d="M31.7858 -53.2896C20.6825 -52.1534 8.50172 -38.5266 4.59242 -28.2304C0.80883 -18.2653 1.74919 -5.82192 1.67695 4.74204C1.59631 16.5346 0.752658 29.3586 4.97833 40.4952C15.224 67.4974 37.3999 79.9984 62.1975 85.7668C81.1207 90.1686 107.483 92.8404 114.507 115.844C118.722 129.647 118.622 146.241 116.158 160.602C111.724 186.441 119.029 210.432 142.646 220.824C151.369 224.663 159.577 228.887 169.123 228.953C174.421 228.989 179.719 229.025 185.018 229.061" stroke="#05B022" stroke-opacity="0.8" stroke-width="3" stroke-linecap="round"/>
<rect x="186.934" y="-51.1631" width="137.452" height="125" transform="rotate(90.3918 186.934 -51.1631)" fill="#05B022"/>
<ellipse cx="165.422" cy="169.79" rx="58.0707" ry="51" transform="rotate(90.3918 165.422 169.79)" fill="#05B022"/>
<ellipse cx="173.393" cy="174.106" rx="58.0707" ry="51" transform="rotate(90.3918 173.393 174.106)" fill="#05B022"/>
<ellipse cx="162.947" cy="93.0536" rx="58.0707" ry="51" transform="rotate(90.3918 162.947 93.0536)" fill="#05B022"/>
<ellipse cx="167.772" cy="118.66" rx="61.2672" ry="53" transform="rotate(90.3918 167.772 118.66)" fill="#05B022"/>
<ellipse cx="137.21" cy="54.5181" rx="61.2672" ry="53" transform="rotate(90.3918 137.21 54.5181)" fill="#05B022"/>
<ellipse cx="76.0575" cy="3.48701" rx="80.9793" ry="69.5" transform="rotate(90.3918 76.0575 3.48701)" fill="#05B022"/>
<ellipse cx="17.0444" cy="5.2144" rx="51.1448" ry="14.5" transform="rotate(90.3918 17.0444 5.2144)" fill="#05B022"/>
<ellipse cx="72.7262" cy="51.9462" rx="26.1052" ry="58.5" transform="rotate(90.3918 72.7262 51.9462)" fill="#05B022"/>
<ellipse cx="92.631" cy="65.9345" rx="26.1052" ry="58.5" transform="rotate(90.3918 92.631 65.9345)" fill="#05B022"/>
<ellipse cx="84.653" cy="62.6832" rx="28.2362" ry="58.5" transform="rotate(90.3918 84.653 62.6832)" fill="#05B022"/>
<ellipse cx="21.7227" cy="-20.8593" rx="27.1707" ry="12" transform="rotate(90.3918 21.7227 -20.8593)" fill="#05B022"/>
<ellipse cx="13.6646" cy="-12.39" rx="27.1707" ry="12" transform="rotate(90.3918 13.6646 -12.39)" fill="#05B022"/>
<ellipse cx="14.4461" cy="19.5812" rx="27.1707" ry="12" transform="rotate(90.3918 14.4461 19.5812)" fill="#05B022"/>
<ellipse cx="96.1236" cy="67.024" rx="27.1707" ry="12" transform="rotate(90.3918 96.1236 67.024)" fill="#05B022"/>
<ellipse cx="118.977" cy="88.4908" rx="27.1707" ry="12" transform="rotate(90.3918 118.977 88.4908)" fill="#05B022"/>
<ellipse cx="130.613" cy="141.848" rx="27.1707" ry="12" transform="rotate(90.3918 130.613 141.848)" fill="#05B022"/>
<ellipse cx="31.2635" cy="46.3351" rx="27.1707" ry="12" transform="rotate(90.3918 31.2635 46.3351)" fill="#05B022"/>
<ellipse cx="165.422" cy="169.79" rx="58.0707" ry="51" transform="rotate(90.3918 165.422 169.79)" fill="#05B022"/>
<ellipse cx="173.393" cy="174.106" rx="58.0707" ry="51" transform="rotate(90.3918 173.393 174.106)" fill="#05B022"/>
<ellipse cx="162.947" cy="93.0536" rx="58.0707" ry="51" transform="rotate(90.3918 162.947 93.0536)" fill="#05B022"/>
<ellipse cx="167.772" cy="118.66" rx="61.2672" ry="53" transform="rotate(90.3918 167.772 118.66)" fill="#05B022"/>
<ellipse cx="137.21" cy="54.5181" rx="61.2672" ry="53" transform="rotate(90.3918 137.21 54.5181)" fill="#05B022"/>
<ellipse cx="76.0575" cy="3.48701" rx="80.9793" ry="69.5" transform="rotate(90.3918 76.0575 3.48701)" fill="#05B022"/>
<ellipse cx="17.0444" cy="5.2144" rx="51.1448" ry="14.5" transform="rotate(90.3918 17.0444 5.2144)" fill="#05B022"/>
<ellipse cx="72.7262" cy="51.9462" rx="26.1052" ry="58.5" transform="rotate(90.3918 72.7262 51.9462)" fill="#05B022"/>
<ellipse cx="92.631" cy="65.9345" rx="26.1052" ry="58.5" transform="rotate(90.3918 92.631 65.9345)" fill="#05B022"/>
<ellipse cx="84.653" cy="62.6832" rx="28.2362" ry="58.5" transform="rotate(90.3918 84.653 62.6832)" fill="#05B022"/>
<ellipse cx="31.2635" cy="46.3351" rx="27.1707" ry="12" transform="rotate(90.3918 31.2635 46.3351)" fill="#05B022"/>
<ellipse cx="130.613" cy="141.848" rx="27.1707" ry="12" transform="rotate(90.3918 130.613 141.848)" fill="#05B022"/>
<path d="M31.7858 -53.2896C20.6825 -52.1534 8.50172 -38.5266 4.59242 -28.2304C0.80883 -18.2653 1.74919 -5.82192 1.67695 4.74204C1.59631 16.5346 0.752658 29.3586 4.97833 40.4952C15.224 67.4974 37.3999 79.9984 62.1975 85.7668C81.1207 90.1686 107.483 92.8404 114.507 115.844C118.722 129.647 118.622 146.241 116.158 160.602C111.724 186.441 119.029 210.432 142.646 220.824C151.369 224.663 159.577 228.887 169.123 228.953C174.421 228.989 179.719 229.025 185.018 229.061" stroke="#05B022" stroke-opacity="0.8" stroke-width="3" stroke-linecap="round"/>
<rect x="186.934" y="-51.1631" width="137.452" height="125" transform="rotate(90.3918 186.934 -51.1631)" fill="#05B022"/>
<ellipse cx="118.977" cy="88.4908" rx="27.1707" ry="12" transform="rotate(90.3918 118.977 88.4908)" fill="#05B022"/>
<ellipse cx="96.1236" cy="67.0235" rx="27.1707" ry="12" transform="rotate(90.3918 96.1236 67.0235)" fill="#05B022"/>
<ellipse cx="50.5732" cy="147.337" rx="24" ry="21" transform="rotate(90.3918 50.5732 147.337)" fill="#05B022"/>
<ellipse cx="50.5732" cy="147.337" rx="24" ry="21" transform="rotate(90.3918 50.5732 147.337)" fill="#05B022"/>
<ellipse cx="50.5732" cy="147.337" rx="24" ry="21" transform="rotate(90.3918 50.5732 147.337)" fill="#05B022"/>
</svg>
